<svg version="1.0" xmlns="http://www.w3.org/2000/svg" width="76.000000pt" height="76.000000pt" viewBox="0 0 76.000000 76.000000" preserveAspectRatio="xMidYMid meet" transform="rotate(-180)">

<g transform="translate(0.000000,76.000000) scale(0.100000,-0.100000)" fill="#000000" stroke="none">
<path d="M265 740 c-120 -40 -208 -131 -246 -254 -56 -180 32 -376 206 -458
61 -28 71 -30 167 -26 88 2 111 7 158 30 71 35 143 107 178 178 25 50 27 65
27 170 0 107 -2 119 -28 168 -88 167 -288 250 -462 192z m269 -49 c220 -108
268 -386 97 -560 -170 -175 -454 -126 -563 97 -29 59 -33 76 -33 147 0 69 5
89 32 145 89 187 288 259 467 171z"></path>
<path d="M350 542 c0 -4 29 -40 65 -79 36 -39 65 -79 65 -89 0 -10 -30 -49
-67 -86 -54 -55 -65 -70 -54 -80 10 -11 26 1 82 59 59 63 69 78 69 109 0 31
-10 46 -67 105 -59 62 -93 84 -93 61z"></path>
</g>
</svg>