<?xml version="1.0" standalone="no"?>
<!DOCTYPE svg PUBLIC "-//W3C//DTD SVG 20010904//EN"
 "http://www.w3.org/TR/2001/REC-SVG-20010904/DTD/svg10.dtd">
<svg version="1.0" xmlns="http://www.w3.org/2000/svg"
 width="76.000000pt" height="76.000000pt" viewBox="0 0 76.000000 76.000000"
 preserveAspectRatio="xMidYMid meet">

<g transform="translate(0.000000,76.000000) scale(0.100000,-0.100000)"
fill="#000000" stroke="none">
<path d="M240 753 c-23 -9 -70 -55 -70 -69 0 -7 -15 -20 -33 -29 -37 -17 -67
-61 -67 -99 0 -14 -6 -29 -14 -33 -8 -4 -24 -25 -36 -46 -19 -31 -21 -46 -15
-85 9 -61 9 -80 0 -124 -10 -50 -1 -81 37 -123 17 -20 39 -51 48 -68 28 -53
73 -77 144 -77 65 0 97 15 134 59 l19 25 12 -23 c21 -39 70 -61 135 -61 69 0
118 25 143 73 8 18 31 49 50 70 34 38 34 41 29 105 -6 81 -6 73 0 153 5 63 4
68 -24 100 -16 19 -32 51 -36 71 -6 34 -53 88 -77 88 -4 0 -16 14 -24 30 -20
38 -70 70 -110 70 -34 0 -95 -33 -95 -52 0 -6 -13 1 -29 16 -29 28 -89 42
-121 29z m74 -33 c40 -15 56 -58 56 -150 l0 -80 -40 0 c-28 0 -46 7 -64 25
-30 30 -45 31 -80 4 -31 -25 -34 -61 -6 -89 27 -27 66 -25 94 5 17 18 34 25
60 25 l37 0 -3 -97 -3 -98 -33 -3 c-26 -3 -39 3 -57 22 -29 31 -67 34 -95 6
-28 -28 -25 -64 6 -89 35 -27 50 -26 80 4 18 18 36 25 66 25 l40 0 -4 -60 c-5
-71 -27 -106 -82 -134 -26 -13 -47 -16 -72 -12 -36 7 -104 59 -104 81 0 6 -15
28 -34 47 -43 45 -54 93 -31 138 16 31 16 35 -1 71 -14 33 -15 45 -5 79 6 21
23 48 36 58 17 14 25 30 25 51 0 36 38 81 68 81 12 0 22 12 31 35 11 32 49 64
78 65 6 0 23 -4 37 -10z m216 -5 c19 -10 33 -27 38 -47 6 -25 15 -34 40 -40
33 -9 62 -49 62 -86 0 -11 13 -34 29 -51 36 -39 45 -82 26 -129 -14 -32 -14
-40 0 -74 20 -50 10 -92 -30 -131 -18 -18 -35 -42 -39 -54 -10 -31 -61 -71
-101 -79 -45 -8 -102 20 -132 65 -20 29 -23 47 -23 127 l0 94 45 0 c24 0 55 5
68 11 24 11 47 47 47 73 0 8 9 20 20 27 33 24 36 64 6 93 -31 31 -45 32 -80 5
-33 -26 -34 -63 -1 -93 30 -28 31 -40 5 -66 -14 -14 -33 -20 -65 -20 l-45 0 0
163 c0 174 6 198 54 217 31 13 44 12 76 -5z m-276 -231 c7 -19 -10 -44 -29
-44 -19 0 -38 28 -31 45 7 20 52 19 60 -1z m319 4 c6 -18 -11 -48 -27 -48 -20
0 -39 27 -32 45 7 18 52 20 59 3z m-324 -222 c17 -20 2 -46 -25 -46 -29 0 -41
24 -24 45 16 19 34 19 49 1z"/>
</g>
</svg>
