<?xml version="1.0" standalone="no"?>
<!DOCTYPE svg PUBLIC "-//W3C//DTD SVG 20010904//EN"
 "http://www.w3.org/TR/2001/REC-SVG-20010904/DTD/svg10.dtd">
<svg version="1.0" xmlns="http://www.w3.org/2000/svg"
 width="58.000000pt" height="58.000000pt" viewBox="0 0 58.000000 58.000000"
 preserveAspectRatio="xMidYMid meet">

<g transform="translate(0.000000,58.000000) scale(0.100000,-0.100000)"
fill="#000000" stroke="none">
<path d="M205 563 c-99 -36 -163 -103 -191 -201 -38 -130 26 -266 156 -333 67
-35 176 -33 246 3 145 76 202 244 131 384 -66 128 -215 192 -342 147z m190
-32 c100 -45 155 -131 155 -240 -1 -153 -108 -261 -260 -261 -180 0 -301 164
-250 339 21 73 96 150 166 171 51 15 146 11 189 -9z"/>
<path d="M157 440 c-57 -45 -39 -135 43 -224 46 -49 129 -96 171 -96 33 0 89
44 89 70 0 11 -16 31 -36 47 -35 26 -37 27 -66 10 -35 -20 -51 -14 -97 38 -35
41 -37 48 -16 65 22 18 18 44 -11 79 -30 36 -42 38 -77 11z m65 -34 c17 -23
17 -25 -2 -49 -19 -24 -19 -24 9 -68 15 -24 46 -54 68 -66 36 -20 42 -21 53
-8 15 18 39 19 63 1 42 -32 8 -71 -57 -64 -55 7 -131 60 -171 120 -35 52 -44
117 -20 141 22 23 37 21 57 -7z"/>
</g>
</svg>
