<!-- icon666.com - MILLIONS vector ICONS FREE --><svg id="a" viewBox="0 0 24 24" xmlns="http://www.w3.org/2000/svg"><path d="m21 5v14c0 1.1046-.8954 2-2 2h-14c-1.1046 0-2-.8954-2-2v-14c0-1.1046.8954-2 2-2h14c1.1046 0 2 .8954 2 2z" fill="#cbd5e1"></path><path d="m5 21.5h14c1.3789 0 2.5-1.1216 2.5-2.5v-14c0-1.3784-1.1211-2.5-2.5-2.5h-14c-1.3789 0-2.5 1.1216-2.5 2.5v14c0 1.3784 1.1211 2.5 2.5 2.5zm-1.5-16.5c0-.8271.6729-1.5 1.5-1.5h14c.8271 0 1.5.6729 1.5 1.5v14c0 .8271-.6729 1.5-1.5 1.5h-14c-.8271 0-1.5-.6729-1.5-1.5z" fill="#0f172a"></path></svg>